<svg xmlns="http://www.w3.org/2000/svg" viewBox="0 0 910.16 731"><title>docsAsset 11</title><path d="M30,110.7V620.3A80.7,80.7,0,0,0,110.7,701H799.46a80.7,80.7,0,0,0,80.7-80.7V311a80.7,80.7,0,0,0-80.7-80.7H450.09a80.7,80.7,0,0,1-80.7-80.7V110.7A80.69,80.69,0,0,0,288.7,30h-178A80.7,80.7,0,0,0,30,110.7Z" style="fill:none;stroke:#000;stroke-linecap:round;stroke-linejoin:round;stroke-width:60px"/><path d="M369.39,93.35H780.9a65.87,65.87,0,0,1,65.87,65.88V230.3" style="fill:none;stroke:#000;stroke-linecap:round;stroke-linejoin:round;stroke-width:60px"/></svg>