<svg xmlns="http://www.w3.org/2000/svg" viewBox="0 0 876.39 790"><title>search_folderAsset 1</title><rect width="375" height="184" rx="53.18" style="fill:#fcc230"/><path d="M47.86,51H701.14A47.86,47.86,0,0,1,749,98.86V164H5.33A5.33,5.33,0,0,1,0,158.67H0V98.86A47.86,47.86,0,0,1,47.86,51Z" style="fill:#fcc230"/><rect y="164" width="749" height="537" style="fill:#fcc230"/><path d="M749,185l-285.69-5.12-142.84-2.57L249.05,176l-35.71-.64-4.47-.08c-1.38,0-2.63,0-4,0a72.76,72.76,0,0,0-7.8.62,75.31,75.31,0,0,0-7.72,1.41c-1.27.3-2.53.64-3.78,1.05s-2.51.72-3.74,1.18a75.54,75.54,0,0,0-14.22,6.75l-1.69,1a18.09,18.09,0,0,0-1.65,1.09l-3.23,2.29L158,193.23a16.83,16.83,0,0,0-1.5,1.3l-1.46,1.34a76.8,76.8,0,0,0-10.44,12,81.92,81.92,0,0,0-7.77,13.91l-1.48,3.72c-.5,1.24-.83,2.54-1.27,3.8l-.61,1.93-.61,2.15-1.22,4.29-4.88,17.18L117,289.17,78,426.62,0,701.5,68.12,424l34-138.76,8.51-34.68,4.26-17.35,1.06-4.33.53-2.17.65-2.35c.47-1.57.85-3.18,1.4-4.72l1.65-4.64a100.49,100.49,0,0,1,9-17.55,95.62,95.62,0,0,1,12.45-15.36l1.77-1.74c.58-.59,1.18-1.16,1.81-1.7L149,175.4l4-3a24,24,0,0,1,2-1.44l2.06-1.39a97.07,97.07,0,0,1,17.67-9.17c1.54-.63,3.14-1.12,4.71-1.68s3.16-1.06,4.77-1.5a99,99,0,0,1,9.77-2.17,97.94,97.94,0,0,1,10-1.15c1.65-.11,3.38-.16,5-.19l4.47-.08,35.71-.64,71.42-1.28,142.84-2.56L749,144Z" style="fill:#b58823"/><path d="M0,701,125,228.29A86.37,86.37,0,0,1,208.5,164H790c57.55,0,99,55.21,82.95,110.47L749,701Z" style="fill:#fcc230"/><circle cx="669.5" cy="614.5" r="175.5" style="fill:#2fe821"/><path d="M557,614.5a106,106,0,0,1,1.3-40.4,114.39,114.39,0,0,1,6.54-19.9,119.37,119.37,0,0,1,10.26-18.72,45.16,45.16,0,0,1,3.41-4.14c1.25-1.28,2.57-2.5,3.84-3.75s2.64-2.41,3.93-3.64,2.68-2.36,4-3.54A124.46,124.46,0,0,1,627.17,499a125.13,125.13,0,0,1,42-7.47,127.14,127.14,0,0,1,21.32,1.81,121.14,121.14,0,0,1,40.13,14.45,123,123,0,0,1,1.17,212.79,122.89,122.89,0,0,1-61.27,16.92c-1.78,0-3.56-.07-5.35-.1l-2.67-.08c-.89-.06-1.78-.13-2.67-.16l-2.68-.12L655.8,737l-1.34-.14a44.9,44.9,0,0,1-5.27-1c-27.77-7.63-51.34-25.59-65.16-48.17a125.76,125.76,0,0,0,15.88,11.4,110.84,110.84,0,0,0,52.72,16.06,102.32,102.32,0,0,0,68.5-12.65,102,102,0,0,0,44.44-53.66A101.91,101.91,0,0,0,720.16,526a100.23,100.23,0,0,0-33.24-12,107,107,0,0,0-17.7-1.5,101.87,101.87,0,0,0-65.39,24c-1.11,1-2.26,1.92-3.34,2.94s-2.14,2-3.16,3.12-1.91,2.27-2.91,3.35a40.45,40.45,0,0,1-3,3.24,107.75,107.75,0,0,0-12.16,13.38,112.13,112.13,0,0,0-10,15.56A121.91,121.91,0,0,0,557,614.5Z" style="fill:#fff"/><circle cx="601" cy="702" r="22" style="fill:#fff"/></svg>